<svg id="visual" viewBox="0 0 900 600" width="900" height="600" xmlns="http://www.w3.org/2000/svg" xmlns:xlink="http://www.w3.org/1999/xlink" version="1.1"><rect width="900" height="600" fill="#f4f4f4"></rect><g><g transform="translate(667 370)"><path d="M49 28C37.1 49 -17.2 45.1 -32.5 22.3C-47.7 -0.6 -23.8 -42.4 3.3 -40.5C30.5 -38.6 60.9 7.1 49 28Z" stroke="#38b6ff" fill="none" stroke-width="5"></path></g><g transform="translate(441 486)"><path d="M27.4 15C12.9 41 -37.2 45.7 -47.7 22C-58.2 -1.7 -29.1 -53.7 -4.1 -56C21 -58.4 41.9 -11 27.4 15Z" stroke="#38b6ff" fill="none" stroke-width="5"></path></g><g transform="translate(401 247)"><path d="M42 25.3C35.7 35 -0.8 28.3 -12.9 15.2C-24.9 2.1 -12.5 -17.5 5.8 -14.1C24.1 -10.7 48.2 15.5 42 25.3Z" stroke="#38b6ff" fill="none" stroke-width="5"></path></g><g transform="translate(126 435)"><path d="M32.3 23C23.7 33.5 -13.9 31.6 -24.2 20.2C-34.4 8.7 -17.2 -12.4 1.6 -11.5C20.4 -10.5 40.9 12.4 32.3 23Z" stroke="#38b6ff" fill="none" stroke-width="5"></path></g></g></svg>