<svg id="visual" viewBox="0 0 900 600" width="900" height="600" xmlns="http://www.w3.org/2000/svg" xmlns:xlink="http://www.w3.org/1999/xlink" version="1.1"><path d="M0 241L21.5 241.8C43 242.7 86 244.3 128.8 232.7C171.7 221 214.3 196 257.2 182.7C300 169.3 343 167.7 385.8 171.5C428.7 175.3 471.3 184.7 514.2 190.5C557 196.3 600 198.7 642.8 207.7C685.7 216.7 728.3 232.3 771.2 236.5C814 240.7 857 233.3 878.5 229.7L900 226L900 0L878.5 0C857 0 814 0 771.2 0C728.3 0 685.7 0 642.8 0C600 0 557 0 514.2 0C471.3 0 428.7 0 385.8 0C343 0 300 0 257.2 0C214.3 0 171.7 0 128.8 0C86 0 43 0 21.5 0L0 0Z" fill="#89d4ed"></path><path d="M0 137L21.5 136.5C43 136 86 135 128.8 132.8C171.7 130.7 214.3 127.3 257.2 132.3C300 137.3 343 150.7 385.8 161.5C428.7 172.3 471.3 180.7 514.2 176C557 171.3 600 153.7 642.8 142.2C685.7 130.7 728.3 125.3 771.2 130.8C814 136.3 857 152.7 878.5 160.8L900 169L900 0L878.5 0C857 0 814 0 771.2 0C728.3 0 685.7 0 642.8 0C600 0 557 0 514.2 0C471.3 0 428.7 0 385.8 0C343 0 300 0 257.2 0C214.3 0 171.7 0 128.8 0C86 0 43 0 21.5 0L0 0Z" fill="#74cdf1"></path><path d="M0 113L21.5 116.3C43 119.7 86 126.3 128.8 122C171.7 117.7 214.3 102.3 257.2 105.2C300 108 343 129 385.8 129.8C428.7 130.7 471.3 111.3 514.2 110.5C557 109.7 600 127.3 642.8 126.5C685.7 125.7 728.3 106.3 771.2 108.5C814 110.7 857 134.3 878.5 146.2L900 158L900 0L878.5 0C857 0 814 0 771.2 0C728.3 0 685.7 0 642.8 0C600 0 557 0 514.2 0C471.3 0 428.7 0 385.8 0C343 0 300 0 257.2 0C214.3 0 171.7 0 128.8 0C86 0 43 0 21.5 0L0 0Z" fill="#5fc6f6"></path><path d="M0 96L21.5 94.7C43 93.3 86 90.7 128.8 91.5C171.7 92.3 214.3 96.7 257.2 96.5C300 96.3 343 91.7 385.8 92.5C428.7 93.3 471.3 99.7 514.2 104C557 108.3 600 110.7 642.8 106.3C685.7 102 728.3 91 771.2 86.5C814 82 857 84 878.5 85L900 86L900 0L878.5 0C857 0 814 0 771.2 0C728.3 0 685.7 0 642.8 0C600 0 557 0 514.2 0C471.3 0 428.7 0 385.8 0C343 0 300 0 257.2 0C214.3 0 171.7 0 128.8 0C86 0 43 0 21.5 0L0 0Z" fill="#4bbefb"></path><path d="M0 43L21.5 44.7C43 46.3 86 49.7 128.8 47.2C171.7 44.7 214.3 36.3 257.2 33.7C300 31 343 34 385.8 37.7C428.7 41.3 471.3 45.7 514.2 48C557 50.3 600 50.7 642.8 54C685.7 57.3 728.3 63.7 771.2 64C814 64.3 857 58.7 878.5 55.8L900 53L900 0L878.5 0C857 0 814 0 771.2 0C728.3 0 685.7 0 642.8 0C600 0 557 0 514.2 0C471.3 0 428.7 0 385.8 0C343 0 300 0 257.2 0C214.3 0 171.7 0 128.8 0C86 0 43 0 21.5 0L0 0Z" fill="#38b6ff"></path></svg>